<svg xmlns="http://www.w3.org/2000/svg" xmlns:xlink="http://www.w3.org/1999/xlink" width="3780" zoomAndPan="magnify" viewBox="0 0 2835 606.749999" height="809" preserveAspectRatio="xMidYMid meet" version="1.0"><defs><g/><clipPath id="5a8035c530"><path d="M 0.582031 14 L 2834 14 L 2834 524 L 0.582031 524 Z M 0.582031 14 " clip-rule="nonzero"/></clipPath><clipPath id="d5650dce2f"><path d="M 0.582031 0.875 L 2833.335938 0.875 L 2833.335938 509.464844 L 0.582031 509.464844 Z M 0.582031 0.875 " clip-rule="nonzero"/></clipPath><clipPath id="8923502096"><rect x="0" width="2834" y="0" height="510"/></clipPath><clipPath id="fb1525c6dd"><rect x="0" width="2834" y="0" height="510"/></clipPath></defs><g clip-path="url(#5a8035c530)"><g transform="matrix(1, 0, 0, 1, 0, 14)"><g clip-path="url(#fb1525c6dd)"><g clip-path="url(#d5650dce2f)"><g transform="matrix(1, 0, 0, 1, 0, 0.000000000000010658)"><g clip-path="url(#8923502096)"><g fill="#000000" fill-opacity="1"><g transform="translate(5.548802, 409.567163)"><g><path d="M 367.078125 -98.125 L 418.4375 -98.125 L 418.4375 0 L 297.421875 0 L 196.25 -164.21875 L 168.796875 -164.21875 L 168.796875 -98.125 L 210.484375 -98.125 L 210.484375 0 L 12.203125 0 L 12.203125 -98.125 L 57.453125 -98.125 L 57.453125 -308.609375 L 12.203125 -308.609375 L 12.203125 -406.734375 L 339.125 -406.734375 L 398.09375 -348.265625 L 398.09375 -225.734375 L 341.65625 -168.796875 L 323.359375 -168.796875 Z M 168.796875 -308.109375 L 168.796875 -252.171875 L 286.75 -252.171875 L 286.75 -308.109375 Z M 168.796875 -308.109375 "/></g></g></g><g fill="#000000" fill-opacity="1"><g transform="translate(429.566529, 409.567163)"><g><path d="M 397.078125 -98.125 L 438.265625 -98.125 L 438.265625 0 L 242.515625 0 L 242.515625 -90.5 L 280.65625 -90.5 L 268.953125 -129.140625 L 169.8125 -129.140625 L 158.125 -90.5 L 196.765625 -90.5 L 196.765625 0 L 4.578125 0 L 4.578125 -98.125 L 44.734375 -98.125 L 121.515625 -312.171875 L 67.625 -312.171875 L 67.625 -406.734375 L 287.265625 -406.734375 L 286.234375 -406.234375 Z M 193.703125 -208.453125 L 245.0625 -208.453125 L 219.640625 -293.359375 Z M 193.703125 -208.453125 "/></g></g></g><g fill="#000000" fill-opacity="1"><g transform="translate(871.887226, 409.567163)"><g><path d="M 336.0625 -406.734375 L 395.046875 -348.265625 L 395.046875 -204.390625 L 336.578125 -145.40625 L 168.796875 -145.40625 L 168.796875 -96.09375 L 224.71875 -96.09375 L 224.71875 0 L 12.203125 0 L 12.203125 -98.125 L 57.453125 -98.125 L 57.453125 -308.609375 L 12.203125 -308.609375 L 12.203125 -406.734375 Z M 283.1875 -234.890625 L 283.1875 -308.609375 L 168.796875 -308.609375 L 168.796875 -234.890625 Z M 283.1875 -234.890625 "/></g></g></g><g fill="#000000" fill-opacity="1"><g transform="translate(1284.211462, 409.567163)"><g><path d="M 312.171875 -406.734375 L 371.140625 -348.265625 L 371.140625 -58.984375 L 312.671875 0 L 81.34375 0 L 22.375 -58.46875 L 22.375 -347.765625 L 80.84375 -406.734375 Z M 259.296875 -308.609375 L 133.71875 -308.609375 L 133.71875 -98.125 L 259.296875 -98.125 Z M 259.296875 -308.609375 "/></g></g></g><g fill="#000000" fill-opacity="1"><g transform="translate(1677.724322, 409.567163)"><g><path d="M 265.90625 -174.890625 L 364.03125 -174.890625 L 364.03125 0 L 12.203125 0 L 12.203125 -98.125 L 57.453125 -98.125 L 57.453125 -308.609375 L 12.203125 -308.609375 L 12.203125 -406.734375 L 221.671875 -406.734375 L 221.671875 -308.609375 L 168.796875 -308.609375 L 168.796875 -98.125 L 265.90625 -98.125 Z M 265.90625 -174.890625 "/></g></g></g><g fill="#000000" fill-opacity="1"><g transform="translate(2057.001609, 409.567163)"><g><path d="M 265.90625 -174.890625 L 364.03125 -174.890625 L 364.03125 0 L 12.203125 0 L 12.203125 -98.125 L 57.453125 -98.125 L 57.453125 -308.609375 L 12.203125 -308.609375 L 12.203125 -406.734375 L 221.671875 -406.734375 L 221.671875 -308.609375 L 168.796875 -308.609375 L 168.796875 -98.125 L 265.90625 -98.125 Z M 265.90625 -174.890625 "/></g></g></g><g fill="#000000" fill-opacity="1"><g transform="translate(2436.278897, 409.567163)"><g><path d="M 312.171875 -406.734375 L 371.140625 -348.265625 L 371.140625 -58.984375 L 312.671875 0 L 81.34375 0 L 22.375 -58.46875 L 22.375 -347.765625 L 80.84375 -406.734375 Z M 259.296875 -308.609375 L 133.71875 -308.609375 L 133.71875 -98.125 L 259.296875 -98.125 Z M 259.296875 -308.609375 "/></g></g></g></g></g></g></g></g></g></svg>