<svg xmlns="http://www.w3.org/2000/svg" xmlns:xlink="http://www.w3.org/1999/xlink" width="500" zoomAndPan="magnify" viewBox="0 0 375 374.999991" height="500" preserveAspectRatio="xMidYMid meet" version="1.0"><defs><g/><clipPath id="cf84399d65"><path d="M 0 26.367188 L 375 26.367188 L 375 348.632812 L 0 348.632812 Z M 0 26.367188 " clip-rule="nonzero"/></clipPath><clipPath id="0d980eb433"><path d="M 375 187.5 L 281.25 348.632812 L 93.75 348.632812 L 0 187.5 L 93.75 26.367188 L 281.25 26.367188 Z M 375 187.5 " clip-rule="nonzero"/></clipPath><clipPath id="7ca42a8f76"><path d="M 0 0.367188 L 375 0.367188 L 375 322.632812 L 0 322.632812 Z M 0 0.367188 " clip-rule="nonzero"/></clipPath><clipPath id="729ed6a59a"><path d="M 375 161.5 L 281.25 322.632812 L 93.75 322.632812 L 0 161.5 L 93.75 0.367188 L 281.25 0.367188 Z M 375 161.5 " clip-rule="nonzero"/></clipPath><radialGradient gradientTransform="matrix(1, 0, 0, 1, -0.000226002, 0.367186)" gradientUnits="userSpaceOnUse" r="494.449834" cx="0" id="5734f84942" cy="0" fx="0" fy="0"><stop stop-opacity="1" stop-color="rgb(65.234375%, 65.234375%, 65.234375%)" offset="0"/><stop stop-opacity="1" stop-color="rgb(65.438843%, 65.438843%, 65.438843%)" offset="0.0078125"/><stop stop-opacity="1" stop-color="rgb(65.576172%, 65.576172%, 65.576172%)" offset="0.0117188"/><stop stop-opacity="1" stop-color="rgb(65.711975%, 65.711975%, 65.711975%)" offset="0.015625"/><stop stop-opacity="1" stop-color="rgb(65.849304%, 65.849304%, 65.849304%)" offset="0.0195312"/><stop stop-opacity="1" stop-color="rgb(65.985107%, 65.985107%, 65.985107%)" offset="0.0234375"/><stop stop-opacity="1" stop-color="rgb(66.120911%, 66.120911%, 66.120911%)" offset="0.0273438"/><stop stop-opacity="1" stop-color="rgb(66.25824%, 66.25824%, 66.25824%)" offset="0.03125"/><stop stop-opacity="1" stop-color="rgb(66.394043%, 66.394043%, 66.394043%)" offset="0.0351562"/><stop stop-opacity="1" stop-color="rgb(66.529846%, 66.529846%, 66.529846%)" offset="0.0390625"/><stop stop-opacity="1" stop-color="rgb(66.667175%, 66.667175%, 66.667175%)" offset="0.0429688"/><stop stop-opacity="1" stop-color="rgb(66.802979%, 66.802979%, 66.802979%)" offset="0.046875"/><stop stop-opacity="1" stop-color="rgb(66.938782%, 66.938782%, 66.938782%)" offset="0.0507812"/><stop stop-opacity="1" stop-color="rgb(67.076111%, 67.076111%, 67.076111%)" offset="0.0546875"/><stop stop-opacity="1" stop-color="rgb(67.211914%, 67.211914%, 67.211914%)" offset="0.0585938"/><stop stop-opacity="1" stop-color="rgb(67.347717%, 67.347717%, 67.347717%)" offset="0.0625"/><stop stop-opacity="1" stop-color="rgb(67.485046%, 67.485046%, 67.485046%)" offset="0.0664062"/><stop stop-opacity="1" stop-color="rgb(67.62085%, 67.62085%, 67.62085%)" offset="0.0703125"/><stop stop-opacity="1" stop-color="rgb(67.756653%, 67.756653%, 67.756653%)" offset="0.0742188"/><stop stop-opacity="1" stop-color="rgb(67.893982%, 67.893982%, 67.893982%)" offset="0.078125"/><stop stop-opacity="1" stop-color="rgb(68.029785%, 68.029785%, 68.029785%)" offset="0.0820312"/><stop stop-opacity="1" stop-color="rgb(68.165588%, 68.165588%, 68.165588%)" offset="0.0859375"/><stop stop-opacity="1" stop-color="rgb(68.302917%, 68.302917%, 68.302917%)" offset="0.0898438"/><stop stop-opacity="1" stop-color="rgb(68.438721%, 68.438721%, 68.438721%)" offset="0.09375"/><stop stop-opacity="1" stop-color="rgb(68.574524%, 68.574524%, 68.574524%)" offset="0.0976562"/><stop stop-opacity="1" stop-color="rgb(68.711853%, 68.711853%, 68.711853%)" offset="0.101562"/><stop stop-opacity="1" stop-color="rgb(68.847656%, 68.847656%, 68.847656%)" offset="0.105469"/><stop stop-opacity="1" stop-color="rgb(68.983459%, 68.983459%, 68.983459%)" offset="0.109375"/><stop stop-opacity="1" stop-color="rgb(69.120789%, 69.120789%, 69.120789%)" offset="0.113281"/><stop stop-opacity="1" stop-color="rgb(69.256592%, 69.256592%, 69.256592%)" offset="0.117188"/><stop stop-opacity="1" stop-color="rgb(69.392395%, 69.392395%, 69.392395%)" offset="0.121094"/><stop stop-opacity="1" stop-color="rgb(69.529724%, 69.529724%, 69.529724%)" offset="0.125"/><stop stop-opacity="1" stop-color="rgb(69.665527%, 69.665527%, 69.665527%)" offset="0.128906"/><stop stop-opacity="1" stop-color="rgb(69.801331%, 69.801331%, 69.801331%)" offset="0.132812"/><stop stop-opacity="1" stop-color="rgb(69.93866%, 69.93866%, 69.93866%)" offset="0.136719"/><stop stop-opacity="1" stop-color="rgb(70.074463%, 70.074463%, 70.074463%)" offset="0.140625"/><stop stop-opacity="1" stop-color="rgb(70.211792%, 70.211792%, 70.211792%)" offset="0.144531"/><stop stop-opacity="1" stop-color="rgb(70.347595%, 70.347595%, 70.347595%)" offset="0.148438"/><stop stop-opacity="1" stop-color="rgb(70.483398%, 70.483398%, 70.483398%)" offset="0.152344"/><stop stop-opacity="1" stop-color="rgb(70.620728%, 70.620728%, 70.620728%)" offset="0.15625"/><stop stop-opacity="1" stop-color="rgb(70.756531%, 70.756531%, 70.756531%)" offset="0.160156"/><stop stop-opacity="1" stop-color="rgb(70.892334%, 70.892334%, 70.892334%)" offset="0.164062"/><stop stop-opacity="1" stop-color="rgb(71.029663%, 71.029663%, 71.029663%)" offset="0.167969"/><stop stop-opacity="1" stop-color="rgb(71.165466%, 71.165466%, 71.165466%)" offset="0.171875"/><stop stop-opacity="1" stop-color="rgb(71.30127%, 71.30127%, 71.30127%)" offset="0.175781"/><stop stop-opacity="1" stop-color="rgb(71.438599%, 71.438599%, 71.438599%)" offset="0.179688"/><stop stop-opacity="1" stop-color="rgb(71.574402%, 71.574402%, 71.574402%)" offset="0.183594"/><stop stop-opacity="1" stop-color="rgb(71.710205%, 71.710205%, 71.710205%)" offset="0.1875"/><stop stop-opacity="1" stop-color="rgb(71.847534%, 71.847534%, 71.847534%)" offset="0.191406"/><stop stop-opacity="1" stop-color="rgb(71.983337%, 71.983337%, 71.983337%)" offset="0.195312"/><stop stop-opacity="1" stop-color="rgb(72.119141%, 72.119141%, 72.119141%)" offset="0.199219"/><stop stop-opacity="1" stop-color="rgb(72.25647%, 72.25647%, 72.25647%)" offset="0.203125"/><stop stop-opacity="1" stop-color="rgb(72.392273%, 72.392273%, 72.392273%)" offset="0.207031"/><stop stop-opacity="1" stop-color="rgb(72.528076%, 72.528076%, 72.528076%)" offset="0.210938"/><stop stop-opacity="1" stop-color="rgb(72.665405%, 72.665405%, 72.665405%)" offset="0.214844"/><stop stop-opacity="1" stop-color="rgb(72.801208%, 72.801208%, 72.801208%)" offset="0.21875"/><stop stop-opacity="1" stop-color="rgb(72.937012%, 72.937012%, 72.937012%)" offset="0.222656"/><stop stop-opacity="1" stop-color="rgb(73.074341%, 73.074341%, 73.074341%)" offset="0.226562"/><stop stop-opacity="1" stop-color="rgb(73.210144%, 73.210144%, 73.210144%)" offset="0.230469"/><stop stop-opacity="1" stop-color="rgb(73.345947%, 73.345947%, 73.345947%)" offset="0.234375"/><stop stop-opacity="1" stop-color="rgb(73.483276%, 73.483276%, 73.483276%)" offset="0.238281"/><stop stop-opacity="1" stop-color="rgb(73.61908%, 73.61908%, 73.61908%)" offset="0.242188"/><stop stop-opacity="1" stop-color="rgb(73.754883%, 73.754883%, 73.754883%)" offset="0.246094"/><stop stop-opacity="1" stop-color="rgb(73.892212%, 73.892212%, 73.892212%)" offset="0.25"/><stop stop-opacity="1" stop-color="rgb(74.09668%, 74.09668%, 74.09668%)" offset="0.253906"/><stop stop-opacity="1" stop-color="rgb(74.368286%, 74.368286%, 74.368286%)" offset="0.261719"/><stop stop-opacity="1" stop-color="rgb(74.641418%, 74.641418%, 74.641418%)" offset="0.269531"/><stop stop-opacity="1" stop-color="rgb(74.914551%, 74.914551%, 74.914551%)" offset="0.277344"/><stop stop-opacity="1" stop-color="rgb(75.187683%, 75.187683%, 75.187683%)" offset="0.285156"/><stop stop-opacity="1" stop-color="rgb(75.45929%, 75.45929%, 75.45929%)" offset="0.292969"/><stop stop-opacity="1" stop-color="rgb(75.732422%, 75.732422%, 75.732422%)" offset="0.300781"/><stop stop-opacity="1" stop-color="rgb(76.005554%, 76.005554%, 76.005554%)" offset="0.308594"/><stop stop-opacity="1" stop-color="rgb(76.277161%, 76.277161%, 76.277161%)" offset="0.316406"/><stop stop-opacity="1" stop-color="rgb(76.550293%, 76.550293%, 76.550293%)" offset="0.324219"/><stop stop-opacity="1" stop-color="rgb(76.823425%, 76.823425%, 76.823425%)" offset="0.332031"/><stop stop-opacity="1" stop-color="rgb(77.095032%, 77.095032%, 77.095032%)" offset="0.339844"/><stop stop-opacity="1" stop-color="rgb(77.368164%, 77.368164%, 77.368164%)" offset="0.347656"/><stop stop-opacity="1" stop-color="rgb(77.641296%, 77.641296%, 77.641296%)" offset="0.355469"/><stop stop-opacity="1" stop-color="rgb(77.912903%, 77.912903%, 77.912903%)" offset="0.363281"/><stop stop-opacity="1" stop-color="rgb(78.186035%, 78.186035%, 78.186035%)" offset="0.371094"/><stop stop-opacity="1" stop-color="rgb(78.459167%, 78.459167%, 78.459167%)" offset="0.378906"/><stop stop-opacity="1" stop-color="rgb(78.730774%, 78.730774%, 78.730774%)" offset="0.386719"/><stop stop-opacity="1" stop-color="rgb(79.003906%, 79.003906%, 79.003906%)" offset="0.394531"/><stop stop-opacity="1" stop-color="rgb(79.277039%, 79.277039%, 79.277039%)" offset="0.402344"/><stop stop-opacity="1" stop-color="rgb(79.550171%, 79.550171%, 79.550171%)" offset="0.410156"/><stop stop-opacity="1" stop-color="rgb(79.821777%, 79.821777%, 79.821777%)" offset="0.417969"/><stop stop-opacity="1" stop-color="rgb(80.09491%, 80.09491%, 80.09491%)" offset="0.425781"/><stop stop-opacity="1" stop-color="rgb(80.368042%, 80.368042%, 80.368042%)" offset="0.433594"/><stop stop-opacity="1" stop-color="rgb(80.639648%, 80.639648%, 80.639648%)" offset="0.441406"/><stop stop-opacity="1" stop-color="rgb(80.912781%, 80.912781%, 80.912781%)" offset="0.449219"/><stop stop-opacity="1" stop-color="rgb(81.185913%, 81.185913%, 81.185913%)" offset="0.457031"/><stop stop-opacity="1" stop-color="rgb(81.45752%, 81.45752%, 81.45752%)" offset="0.464844"/><stop stop-opacity="1" stop-color="rgb(81.730652%, 81.730652%, 81.730652%)" offset="0.472656"/><stop stop-opacity="1" stop-color="rgb(82.003784%, 82.003784%, 82.003784%)" offset="0.480469"/><stop stop-opacity="1" stop-color="rgb(82.275391%, 82.275391%, 82.275391%)" offset="0.488281"/><stop stop-opacity="1" stop-color="rgb(82.548523%, 82.548523%, 82.548523%)" offset="0.496094"/><stop stop-opacity="1" stop-color="rgb(82.752991%, 82.752991%, 82.752991%)" offset="0.503906"/><stop stop-opacity="1" stop-color="rgb(82.89032%, 82.89032%, 82.89032%)" offset="0.507812"/><stop stop-opacity="1" stop-color="rgb(83.026123%, 83.026123%, 83.026123%)" offset="0.511719"/><stop stop-opacity="1" stop-color="rgb(83.161926%, 83.161926%, 83.161926%)" offset="0.515625"/><stop stop-opacity="1" stop-color="rgb(83.299255%, 83.299255%, 83.299255%)" offset="0.519531"/><stop stop-opacity="1" stop-color="rgb(83.435059%, 83.435059%, 83.435059%)" offset="0.523438"/><stop stop-opacity="1" stop-color="rgb(83.570862%, 83.570862%, 83.570862%)" offset="0.527344"/><stop stop-opacity="1" stop-color="rgb(83.708191%, 83.708191%, 83.708191%)" offset="0.53125"/><stop stop-opacity="1" stop-color="rgb(83.843994%, 83.843994%, 83.843994%)" offset="0.535156"/><stop stop-opacity="1" stop-color="rgb(83.979797%, 83.979797%, 83.979797%)" offset="0.539062"/><stop stop-opacity="1" stop-color="rgb(84.117126%, 84.117126%, 84.117126%)" offset="0.542969"/><stop stop-opacity="1" stop-color="rgb(84.25293%, 84.25293%, 84.25293%)" offset="0.546875"/><stop stop-opacity="1" stop-color="rgb(84.388733%, 84.388733%, 84.388733%)" offset="0.550781"/><stop stop-opacity="1" stop-color="rgb(84.526062%, 84.526062%, 84.526062%)" offset="0.554688"/><stop stop-opacity="1" stop-color="rgb(84.661865%, 84.661865%, 84.661865%)" offset="0.558594"/><stop stop-opacity="1" stop-color="rgb(84.797668%, 84.797668%, 84.797668%)" offset="0.5625"/><stop stop-opacity="1" stop-color="rgb(84.934998%, 84.934998%, 84.934998%)" offset="0.566406"/><stop stop-opacity="1" stop-color="rgb(85.070801%, 85.070801%, 85.070801%)" offset="0.570312"/><stop stop-opacity="1" stop-color="rgb(85.206604%, 85.206604%, 85.206604%)" offset="0.574219"/><stop stop-opacity="1" stop-color="rgb(85.343933%, 85.343933%, 85.343933%)" offset="0.578125"/><stop stop-opacity="1" stop-color="rgb(85.479736%, 85.479736%, 85.479736%)" offset="0.582031"/><stop stop-opacity="1" stop-color="rgb(85.61554%, 85.61554%, 85.61554%)" offset="0.585938"/><stop stop-opacity="1" stop-color="rgb(85.752869%, 85.752869%, 85.752869%)" offset="0.589844"/><stop stop-opacity="1" stop-color="rgb(85.888672%, 85.888672%, 85.888672%)" offset="0.59375"/><stop stop-opacity="1" stop-color="rgb(86.024475%, 86.024475%, 86.024475%)" offset="0.597656"/><stop stop-opacity="1" stop-color="rgb(86.161804%, 86.161804%, 86.161804%)" offset="0.601562"/><stop stop-opacity="1" stop-color="rgb(86.297607%, 86.297607%, 86.297607%)" offset="0.605469"/><stop stop-opacity="1" stop-color="rgb(86.433411%, 86.433411%, 86.433411%)" offset="0.609375"/><stop stop-opacity="1" stop-color="rgb(86.57074%, 86.57074%, 86.57074%)" offset="0.613281"/><stop stop-opacity="1" stop-color="rgb(86.706543%, 86.706543%, 86.706543%)" offset="0.617188"/><stop stop-opacity="1" stop-color="rgb(86.842346%, 86.842346%, 86.842346%)" offset="0.621094"/><stop stop-opacity="1" stop-color="rgb(86.979675%, 86.979675%, 86.979675%)" offset="0.625"/><stop stop-opacity="1" stop-color="rgb(87.184143%, 87.184143%, 87.184143%)" offset="0.628906"/><stop stop-opacity="1" stop-color="rgb(87.457275%, 87.457275%, 87.457275%)" offset="0.636719"/><stop stop-opacity="1" stop-color="rgb(87.728882%, 87.728882%, 87.728882%)" offset="0.644531"/><stop stop-opacity="1" stop-color="rgb(88.002014%, 88.002014%, 88.002014%)" offset="0.652344"/><stop stop-opacity="1" stop-color="rgb(88.275146%, 88.275146%, 88.275146%)" offset="0.660156"/><stop stop-opacity="1" stop-color="rgb(88.546753%, 88.546753%, 88.546753%)" offset="0.667969"/><stop stop-opacity="1" stop-color="rgb(88.819885%, 88.819885%, 88.819885%)" offset="0.675781"/><stop stop-opacity="1" stop-color="rgb(89.093018%, 89.093018%, 89.093018%)" offset="0.683594"/><stop stop-opacity="1" stop-color="rgb(89.364624%, 89.364624%, 89.364624%)" offset="0.691406"/><stop stop-opacity="1" stop-color="rgb(89.637756%, 89.637756%, 89.637756%)" offset="0.699219"/><stop stop-opacity="1" stop-color="rgb(89.910889%, 89.910889%, 89.910889%)" offset="0.707031"/><stop stop-opacity="1" stop-color="rgb(90.182495%, 90.182495%, 90.182495%)" offset="0.714844"/><stop stop-opacity="1" stop-color="rgb(90.455627%, 90.455627%, 90.455627%)" offset="0.722656"/><stop stop-opacity="1" stop-color="rgb(90.72876%, 90.72876%, 90.72876%)" offset="0.730469"/><stop stop-opacity="1" stop-color="rgb(91.000366%, 91.000366%, 91.000366%)" offset="0.738281"/><stop stop-opacity="1" stop-color="rgb(91.273499%, 91.273499%, 91.273499%)" offset="0.746094"/><stop stop-opacity="1" stop-color="rgb(91.477966%, 91.477966%, 91.477966%)" offset="0.753906"/><stop stop-opacity="1" stop-color="rgb(91.615295%, 91.615295%, 91.615295%)" offset="0.757812"/><stop stop-opacity="1" stop-color="rgb(91.751099%, 91.751099%, 91.751099%)" offset="0.761719"/><stop stop-opacity="1" stop-color="rgb(91.886902%, 91.886902%, 91.886902%)" offset="0.765625"/><stop stop-opacity="1" stop-color="rgb(92.024231%, 92.024231%, 92.024231%)" offset="0.769531"/><stop stop-opacity="1" stop-color="rgb(92.160034%, 92.160034%, 92.160034%)" offset="0.773438"/><stop stop-opacity="1" stop-color="rgb(92.295837%, 92.295837%, 92.295837%)" offset="0.777344"/><stop stop-opacity="1" stop-color="rgb(92.433167%, 92.433167%, 92.433167%)" offset="0.78125"/><stop stop-opacity="1" stop-color="rgb(92.56897%, 92.56897%, 92.56897%)" offset="0.785156"/><stop stop-opacity="1" stop-color="rgb(92.704773%, 92.704773%, 92.704773%)" offset="0.789062"/><stop stop-opacity="1" stop-color="rgb(92.842102%, 92.842102%, 92.842102%)" offset="0.792969"/><stop stop-opacity="1" stop-color="rgb(92.977905%, 92.977905%, 92.977905%)" offset="0.796875"/><stop stop-opacity="1" stop-color="rgb(93.113708%, 93.113708%, 93.113708%)" offset="0.800781"/><stop stop-opacity="1" stop-color="rgb(93.251038%, 93.251038%, 93.251038%)" offset="0.804688"/><stop stop-opacity="1" stop-color="rgb(93.386841%, 93.386841%, 93.386841%)" offset="0.808594"/><stop stop-opacity="1" stop-color="rgb(93.522644%, 93.522644%, 93.522644%)" offset="0.8125"/><stop stop-opacity="1" stop-color="rgb(93.727112%, 93.727112%, 93.727112%)" offset="0.816406"/><stop stop-opacity="1" stop-color="rgb(94.000244%, 94.000244%, 94.000244%)" offset="0.824219"/><stop stop-opacity="1" stop-color="rgb(94.273376%, 94.273376%, 94.273376%)" offset="0.832031"/><stop stop-opacity="1" stop-color="rgb(94.544983%, 94.544983%, 94.544983%)" offset="0.839844"/><stop stop-opacity="1" stop-color="rgb(94.818115%, 94.818115%, 94.818115%)" offset="0.847656"/><stop stop-opacity="1" stop-color="rgb(95.091248%, 95.091248%, 95.091248%)" offset="0.855469"/><stop stop-opacity="1" stop-color="rgb(95.362854%, 95.362854%, 95.362854%)" offset="0.863281"/><stop stop-opacity="1" stop-color="rgb(95.635986%, 95.635986%, 95.635986%)" offset="0.871094"/><stop stop-opacity="1" stop-color="rgb(95.840454%, 95.840454%, 95.840454%)" offset="0.878906"/><stop stop-opacity="1" stop-color="rgb(95.977783%, 95.977783%, 95.977783%)" offset="0.882812"/><stop stop-opacity="1" stop-color="rgb(96.113586%, 96.113586%, 96.113586%)" offset="0.886719"/><stop stop-opacity="1" stop-color="rgb(96.24939%, 96.24939%, 96.24939%)" offset="0.890625"/><stop stop-opacity="1" stop-color="rgb(96.386719%, 96.386719%, 96.386719%)" offset="0.894531"/><stop stop-opacity="1" stop-color="rgb(96.522522%, 96.522522%, 96.522522%)" offset="0.898438"/><stop stop-opacity="1" stop-color="rgb(96.658325%, 96.658325%, 96.658325%)" offset="0.902344"/><stop stop-opacity="1" stop-color="rgb(96.795654%, 96.795654%, 96.795654%)" offset="0.90625"/><stop stop-opacity="1" stop-color="rgb(97.000122%, 97.000122%, 97.000122%)" offset="0.910156"/><stop stop-opacity="1" stop-color="rgb(97.271729%, 97.271729%, 97.271729%)" offset="0.917969"/><stop stop-opacity="1" stop-color="rgb(97.544861%, 97.544861%, 97.544861%)" offset="0.925781"/><stop stop-opacity="1" stop-color="rgb(97.817993%, 97.817993%, 97.817993%)" offset="0.933594"/><stop stop-opacity="1" stop-color="rgb(98.022461%, 98.022461%, 98.022461%)" offset="0.941406"/><stop stop-opacity="1" stop-color="rgb(98.158264%, 98.158264%, 98.158264%)" offset="0.945312"/><stop stop-opacity="1" stop-color="rgb(98.294067%, 98.294067%, 98.294067%)" offset="0.949219"/><stop stop-opacity="1" stop-color="rgb(98.431396%, 98.431396%, 98.431396%)" offset="0.953125"/><stop stop-opacity="1" stop-color="rgb(98.635864%, 98.635864%, 98.635864%)" offset="0.957031"/><stop stop-opacity="1" stop-color="rgb(98.907471%, 98.907471%, 98.907471%)" offset="0.964844"/><stop stop-opacity="1" stop-color="rgb(99.111938%, 99.111938%, 99.111938%)" offset="0.972656"/><stop stop-opacity="1" stop-color="rgb(99.249268%, 99.249268%, 99.249268%)" offset="0.976562"/><stop stop-opacity="1" stop-color="rgb(99.453735%, 99.453735%, 99.453735%)" offset="0.980469"/><stop stop-opacity="1" stop-color="rgb(99.658203%, 99.658203%, 99.658203%)" offset="0.988281"/><stop stop-opacity="1" stop-color="rgb(99.862671%, 99.862671%, 99.862671%)" offset="0.992188"/><stop stop-opacity="1" stop-color="rgb(100%, 100%, 100%)" offset="1"/></radialGradient><clipPath id="7843b0c7e2"><rect x="0" width="375" y="0" height="323"/></clipPath><clipPath id="851069ca1a"><path d="M 141 95.59375 L 234 95.59375 L 234 111 L 141 111 Z M 141 95.59375 " clip-rule="nonzero"/></clipPath><clipPath id="2e26fd4338"><path d="M 157 201 L 218 201 L 218 209.59375 L 157 209.59375 Z M 157 201 " clip-rule="nonzero"/></clipPath><clipPath id="a6a6581e59"><path d="M 122.6875 119 L 252.425781 119 L 252.425781 187 L 122.6875 187 Z M 122.6875 119 " clip-rule="nonzero"/></clipPath><clipPath id="2b93a71a7b"><path d="M 175 95.59375 L 184 95.59375 L 184 209.59375 L 175 209.59375 Z M 175 95.59375 " clip-rule="nonzero"/></clipPath><clipPath id="e8af49486e"><path d="M 191 95.59375 L 201 95.59375 L 201 209.59375 L 191 209.59375 Z M 191 95.59375 " clip-rule="nonzero"/></clipPath></defs><g clip-path="url(#cf84399d65)"><g clip-path="url(#0d980eb433)"><g transform="matrix(1, 0, 0, 1, 0, 26)"><g clip-path="url(#7843b0c7e2)"><g clip-path="url(#7ca42a8f76)"><g clip-path="url(#729ed6a59a)"><path fill="url(#5734f84942)" d="M 0 0.367188 L 0 322.632812 L 375 322.632812 L 375 0.367188 Z M 0 0.367188 " fill-rule="nonzero"/></g></g></g></g></g></g><g clip-path="url(#851069ca1a)"><path fill="#1c2633" d="M 146.160156 95.644531 L 233.09375 95.644531 L 233.09375 110.683594 L 224.738281 110.683594 L 224.738281 104.058594 L 150.363281 104.058594 L 150.363281 110.683594 L 141.957031 110.683594 L 141.957031 95.644531 Z M 146.160156 95.644531 " fill-opacity="1" fill-rule="nonzero"/></g><g clip-path="url(#2e26fd4338)"><path fill="#1c2633" d="M 157.96875 201.183594 L 217.082031 201.183594 L 217.082031 209.546875 L 157.96875 209.546875 Z M 157.96875 201.183594 " fill-opacity="1" fill-rule="nonzero"/></g><g clip-path="url(#a6a6581e59)"><path fill="#1c2633" d="M 208.441406 186.171875 L 252.425781 186.171875 L 252.425781 164.90625 L 244.097656 164.90625 L 244.097656 177.757812 L 208.441406 177.757812 Z M 166.609375 119.070312 L 156.152344 119.070312 C 146.9375 119.070312 138.53125 122.835938 132.484375 128.910156 C 126.4375 134.988281 122.675781 143.375 122.675781 152.59375 C 122.675781 161.816406 126.4375 170.226562 132.511719 176.277344 C 138.558594 182.40625 146.964844 186.171875 156.175781 186.171875 L 200.109375 186.171875 L 200.109375 177.757812 L 156.152344 177.757812 C 149.222656 177.757812 142.917969 174.902344 138.425781 170.410156 C 133.859375 165.839844 131.003906 159.527344 131.003906 152.59375 C 131.003906 145.660156 133.859375 139.351562 138.425781 134.859375 C 142.941406 130.289062 149.25 127.429688 156.152344 127.429688 L 166.582031 127.429688 L 166.582031 119.070312 Z M 248.222656 119.070312 L 175.015625 119.070312 L 175.015625 127.40625 L 244.097656 127.40625 L 244.097656 140.261719 L 252.425781 140.261719 L 252.425781 119.070312 Z M 248.222656 119.070312 " fill-opacity="1" fill-rule="nonzero"/></g><g clip-path="url(#2b93a71a7b)"><path fill="#1c2633" d="M 175.015625 95.644531 L 183.347656 95.644531 L 183.347656 209.546875 L 175.015625 209.546875 Z M 175.015625 95.644531 " fill-opacity="1" fill-rule="nonzero"/></g><g clip-path="url(#e8af49486e)"><path fill="#1c2633" d="M 191.703125 95.644531 L 200.085938 95.644531 L 200.085938 209.546875 L 191.703125 209.546875 Z M 191.703125 95.644531 " fill-opacity="1" fill-rule="nonzero"/></g><g fill="#1c2633" fill-opacity="1"><g transform="translate(143.671475, 275.754445)"><g><path d="M 1.5625 0 L 1.5625 -11.421875 L 2.890625 -11.421875 L 2.890625 0 Z M 1.5625 0 "/></g></g></g><g fill="#1c2633" fill-opacity="1"><g transform="translate(150.939125, 275.754445)"><g><path d="M 10.640625 -5.828125 C 10.640625 -4.535156 10.40625 -3.457031 9.9375 -2.59375 C 9.46875 -1.738281 8.785156 -1.09375 7.890625 -0.65625 C 7.003906 -0.21875 5.929688 0 4.671875 0 L 1.5625 0 L 1.5625 -11.421875 L 5.015625 -11.421875 C 6.171875 -11.421875 7.164062 -11.207031 8 -10.78125 C 8.84375 -10.363281 9.492188 -9.738281 9.953125 -8.90625 C 10.410156 -8.070312 10.640625 -7.046875 10.640625 -5.828125 Z M 9.234375 -5.78125 C 9.234375 -6.800781 9.0625 -7.644531 8.71875 -8.3125 C 8.382812 -8.976562 7.882812 -9.472656 7.21875 -9.796875 C 6.5625 -10.128906 5.757812 -10.296875 4.8125 -10.296875 L 2.890625 -10.296875 L 2.890625 -1.140625 L 4.515625 -1.140625 C 6.085938 -1.140625 7.265625 -1.523438 8.046875 -2.296875 C 8.835938 -3.078125 9.234375 -4.238281 9.234375 -5.78125 Z M 9.234375 -5.78125 "/></g></g></g><g fill="#1c2633" fill-opacity="1"><g transform="translate(165.345657, 275.754445)"><g><path d="M 7.921875 0 L 1.5625 0 L 1.5625 -11.421875 L 7.921875 -11.421875 L 7.921875 -10.25 L 2.890625 -10.25 L 2.890625 -6.5625 L 7.640625 -6.5625 L 7.640625 -5.40625 L 2.890625 -5.40625 L 2.890625 -1.171875 L 7.921875 -1.171875 Z M 7.921875 0 "/></g></g></g><g fill="#1c2633" fill-opacity="1"><g transform="translate(177.034102, 275.754445)"><g><path d="M 10.5 0 L 8.96875 0 L 2.734375 -9.59375 L 2.671875 -9.59375 C 2.691406 -9.34375 2.710938 -9.050781 2.734375 -8.71875 C 2.753906 -8.394531 2.769531 -8.050781 2.78125 -7.6875 C 2.789062 -7.320312 2.796875 -6.945312 2.796875 -6.5625 L 2.796875 0 L 1.5625 0 L 1.5625 -11.421875 L 3.09375 -11.421875 L 9.296875 -1.859375 L 9.34375 -1.859375 C 9.332031 -2.046875 9.316406 -2.304688 9.296875 -2.640625 C 9.285156 -2.972656 9.273438 -3.332031 9.265625 -3.71875 C 9.253906 -4.113281 9.25 -4.476562 9.25 -4.8125 L 9.25 -11.421875 L 10.5 -11.421875 Z M 10.5 0 "/></g></g></g><g fill="#1c2633" fill-opacity="1"><g transform="translate(191.878027, 275.754445)"><g><path d="M 5.078125 0 L 3.734375 0 L 3.734375 -10.25 L 0.140625 -10.25 L 0.140625 -11.421875 L 8.65625 -11.421875 L 8.65625 -10.25 L 5.078125 -10.25 Z M 5.078125 0 "/></g></g></g><g fill="#1c2633" fill-opacity="1"><g transform="translate(203.488366, 275.754445)"><g><path d="M 1.5625 0 L 1.5625 -11.421875 L 2.890625 -11.421875 L 2.890625 0 Z M 1.5625 0 "/></g></g></g><g fill="#1c2633" fill-opacity="1"><g transform="translate(210.756016, 275.754445)"><g><path d="M 5.078125 0 L 3.734375 0 L 3.734375 -10.25 L 0.140625 -10.25 L 0.140625 -11.421875 L 8.65625 -11.421875 L 8.65625 -10.25 L 5.078125 -10.25 Z M 5.078125 0 "/></g></g></g><g fill="#1c2633" fill-opacity="1"><g transform="translate(222.366356, 275.754445)"><g><path d="M 4.484375 -5.703125 L 7.515625 -11.421875 L 8.953125 -11.421875 L 5.140625 -4.4375 L 5.140625 0 L 3.8125 0 L 3.8125 -4.375 L 0 -11.421875 L 1.453125 -11.421875 Z M 4.484375 -5.703125 "/></g></g></g><g fill="#1c2633" fill-opacity="1"><g transform="translate(78.272544, 251.333815)"><g><path d="M 25.703125 -21.0625 L 25.703125 0 L 20.578125 0 L 20.578125 -12.625 L 15.875 0 L 11.734375 0 L 6.984375 -12.65625 L 6.984375 0 L 1.859375 0 L 1.859375 -21.0625 L 7.921875 -21.0625 L 13.828125 -6.484375 L 19.6875 -21.0625 Z M 25.703125 -21.0625 "/></g></g></g><g fill="#1c2633" fill-opacity="1"><g transform="translate(109.971829, 251.333815)"><g><path d="M 11.8125 0.203125 C 9.832031 0.203125 8.019531 -0.253906 6.375 -1.171875 C 4.726562 -2.085938 3.414062 -3.367188 2.4375 -5.015625 C 1.46875 -6.671875 0.984375 -8.53125 0.984375 -10.59375 C 0.984375 -12.65625 1.46875 -14.503906 2.4375 -16.140625 C 3.414062 -17.773438 4.726562 -19.050781 6.375 -19.96875 C 8.019531 -20.894531 9.832031 -21.359375 11.8125 -21.359375 C 13.800781 -21.359375 15.617188 -20.894531 17.265625 -19.96875 C 18.910156 -19.050781 20.207031 -17.773438 21.15625 -16.140625 C 22.113281 -14.503906 22.59375 -12.65625 22.59375 -10.59375 C 22.59375 -8.53125 22.109375 -6.671875 21.140625 -5.015625 C 20.179688 -3.367188 18.882812 -2.085938 17.25 -1.171875 C 15.613281 -0.253906 13.800781 0.203125 11.8125 0.203125 Z M 11.8125 -4.46875 C 13.5 -4.46875 14.847656 -5.023438 15.859375 -6.140625 C 16.867188 -7.265625 17.375 -8.75 17.375 -10.59375 C 17.375 -12.445312 16.867188 -13.925781 15.859375 -15.03125 C 14.847656 -16.144531 13.5 -16.703125 11.8125 -16.703125 C 10.113281 -16.703125 8.757812 -16.148438 7.75 -15.046875 C 6.738281 -13.953125 6.234375 -12.46875 6.234375 -10.59375 C 6.234375 -8.726562 6.738281 -7.238281 7.75 -6.125 C 8.757812 -5.019531 10.113281 -4.46875 11.8125 -4.46875 Z M 11.8125 -4.46875 "/></g></g></g><g fill="#1c2633" fill-opacity="1"><g transform="translate(137.712661, 251.333815)"><g><path d="M 20.703125 0 L 15.5625 0 L 6.984375 -12.984375 L 6.984375 0 L 1.859375 0 L 1.859375 -21.0625 L 6.984375 -21.0625 L 15.5625 -8.015625 L 15.5625 -21.0625 L 20.703125 -21.0625 Z M 20.703125 0 "/></g></g></g><g fill="#1c2633" fill-opacity="1"><g transform="translate(164.433881, 251.333815)"><g><path d="M 11.8125 0.203125 C 9.832031 0.203125 8.019531 -0.253906 6.375 -1.171875 C 4.726562 -2.085938 3.414062 -3.367188 2.4375 -5.015625 C 1.46875 -6.671875 0.984375 -8.53125 0.984375 -10.59375 C 0.984375 -12.65625 1.46875 -14.503906 2.4375 -16.140625 C 3.414062 -17.773438 4.726562 -19.050781 6.375 -19.96875 C 8.019531 -20.894531 9.832031 -21.359375 11.8125 -21.359375 C 13.800781 -21.359375 15.617188 -20.894531 17.265625 -19.96875 C 18.910156 -19.050781 20.207031 -17.773438 21.15625 -16.140625 C 22.113281 -14.503906 22.59375 -12.65625 22.59375 -10.59375 C 22.59375 -8.53125 22.109375 -6.671875 21.140625 -5.015625 C 20.179688 -3.367188 18.882812 -2.085938 17.25 -1.171875 C 15.613281 -0.253906 13.800781 0.203125 11.8125 0.203125 Z M 11.8125 -4.46875 C 13.5 -4.46875 14.847656 -5.023438 15.859375 -6.140625 C 16.867188 -7.265625 17.375 -8.75 17.375 -10.59375 C 17.375 -12.445312 16.867188 -13.925781 15.859375 -15.03125 C 14.847656 -16.144531 13.5 -16.703125 11.8125 -16.703125 C 10.113281 -16.703125 8.757812 -16.148438 7.75 -15.046875 C 6.738281 -13.953125 6.234375 -12.46875 6.234375 -10.59375 C 6.234375 -8.726562 6.738281 -7.238281 7.75 -6.125 C 8.757812 -5.019531 10.113281 -4.46875 11.8125 -4.46875 Z M 11.8125 -4.46875 "/></g></g></g><g fill="#1c2633" fill-opacity="1"><g transform="translate(192.174713, 251.333815)"><g><path d="M 15.84375 -14.40625 C 15.457031 -15.101562 14.910156 -15.632812 14.203125 -16 C 13.492188 -16.375 12.660156 -16.5625 11.703125 -16.5625 C 10.035156 -16.5625 8.703125 -16.015625 7.703125 -14.921875 C 6.703125 -13.835938 6.203125 -12.382812 6.203125 -10.5625 C 6.203125 -8.625 6.726562 -7.109375 7.78125 -6.015625 C 8.832031 -4.921875 10.28125 -4.375 12.125 -4.375 C 13.382812 -4.375 14.445312 -4.691406 15.3125 -5.328125 C 16.1875 -5.972656 16.820312 -6.894531 17.21875 -8.09375 L 10.703125 -8.09375 L 10.703125 -11.875 L 21.875 -11.875 L 21.875 -7.109375 C 21.488281 -5.828125 20.835938 -4.632812 19.921875 -3.53125 C 19.015625 -2.4375 17.863281 -1.546875 16.46875 -0.859375 C 15.070312 -0.179688 13.492188 0.15625 11.734375 0.15625 C 9.648438 0.15625 7.789062 -0.296875 6.15625 -1.203125 C 4.53125 -2.117188 3.257812 -3.382812 2.34375 -5 C 1.4375 -6.625 0.984375 -8.476562 0.984375 -10.5625 C 0.984375 -12.644531 1.4375 -14.5 2.34375 -16.125 C 3.257812 -17.75 4.523438 -19.015625 6.140625 -19.921875 C 7.765625 -20.835938 9.617188 -21.296875 11.703125 -21.296875 C 14.222656 -21.296875 16.347656 -20.6875 18.078125 -19.46875 C 19.804688 -18.25 20.953125 -16.5625 21.515625 -14.40625 Z M 15.84375 -14.40625 "/></g></g></g><g fill="#1c2633" fill-opacity="1"><g transform="translate(219.195814, 251.333815)"><g><path d="M 12.59375 0 L 8.21875 -7.953125 L 6.984375 -7.953125 L 6.984375 0 L 1.859375 0 L 1.859375 -21.0625 L 10.46875 -21.0625 C 12.125 -21.0625 13.535156 -20.769531 14.703125 -20.1875 C 15.878906 -19.601562 16.753906 -18.804688 17.328125 -17.796875 C 17.910156 -16.796875 18.203125 -15.675781 18.203125 -14.4375 C 18.203125 -13.03125 17.804688 -11.773438 17.015625 -10.671875 C 16.234375 -9.578125 15.070312 -8.800781 13.53125 -8.34375 L 18.390625 0 Z M 6.984375 -11.578125 L 10.171875 -11.578125 C 11.109375 -11.578125 11.8125 -11.804688 12.28125 -12.265625 C 12.75 -12.722656 12.984375 -13.375 12.984375 -14.21875 C 12.984375 -15.019531 12.75 -15.648438 12.28125 -16.109375 C 11.8125 -16.566406 11.109375 -16.796875 10.171875 -16.796875 L 6.984375 -16.796875 Z M 6.984375 -11.578125 "/></g></g></g><g fill="#1c2633" fill-opacity="1"><g transform="translate(242.918201, 251.333815)"><g><path d="M 14.96875 -3.71875 L 7.109375 -3.71875 L 5.84375 0 L 0.484375 0 L 8.09375 -21.0625 L 14.046875 -21.0625 L 21.65625 0 L 16.234375 0 Z M 13.65625 -7.6875 L 11.046875 -15.390625 L 8.453125 -7.6875 Z M 13.65625 -7.6875 "/></g></g></g><g fill="#1c2633" fill-opacity="1"><g transform="translate(269.1896, 251.333815)"><g><path d="M 25.703125 -21.0625 L 25.703125 0 L 20.578125 0 L 20.578125 -12.625 L 15.875 0 L 11.734375 0 L 6.984375 -12.65625 L 6.984375 0 L 1.859375 0 L 1.859375 -21.0625 L 7.921875 -21.0625 L 13.828125 -6.484375 L 19.6875 -21.0625 Z M 25.703125 -21.0625 "/></g></g></g></svg>