<svg xmlns="http://www.w3.org/2000/svg" xmlns:xlink="http://www.w3.org/1999/xlink" width="500" zoomAndPan="magnify" viewBox="0 0 375 374.999991" height="500" preserveAspectRatio="xMidYMid meet" version="1.0"><defs><clipPath id="7720f340ea"><path d="M 31.601562 42.546875 L 343.601562 42.546875 L 343.601562 337 L 31.601562 337 Z M 31.601562 42.546875 " clip-rule="nonzero"/></clipPath></defs><rect x="-37.5" width="450" fill="#ffffff" y="-37.499999" height="449.999989" fill-opacity="1"/><rect x="-37.5" width="450" fill="#d9d9d9" y="-37.499999" height="449.999989" fill-opacity="1"/><path fill="#f0f1f3" d="M 286.703125 55.660156 C 276.945312 83.332031 274.867188 112.785156 273.117188 135.714844 C 272.984375 138.144531 272.867188 140.609375 272.75 143.089844 C 278.261719 150.714844 287.820312 163.003906 288.019531 162.738281 C 320.804688 150.847656 337.820312 130.601562 337.820312 130.601562 C 329.011719 110.121094 314.375 87.0625 297.84375 67.316406 C 291.402344 59.605469 288.785156 56.40625 286.703125 55.660156 " fill-opacity="1" fill-rule="nonzero"/><path fill="#f0f1f3" d="M 88.300781 55.65625 C 86.21875 56.40625 83.605469 59.601562 77.164062 67.3125 C 60.628906 87.058594 45.992188 110.121094 37.183594 130.601562 C 37.183594 130.601562 54.203125 150.847656 86.984375 162.738281 C 87.1875 163.003906 96.742188 150.714844 102.253906 143.085938 C 102.136719 140.605469 102.019531 138.144531 101.886719 135.710938 C 100.140625 112.785156 98.058594 83.328125 88.300781 55.65625 " fill-opacity="1" fill-rule="nonzero"/><path fill="#f0f1f3" d="M 285.722656 55.457031 C 274.550781 55.339844 244.5 50.195312 233.324219 43.902344 C 233.273438 44.070312 233.222656 44.234375 233.175781 44.402344 C 233.027344 44.917969 232.859375 45.46875 232.660156 46.085938 C 214.460938 89.441406 160.546875 89.457031 142.347656 46.085938 C 142.082031 45.269531 141.863281 44.570312 141.683594 43.902344 C 130.507812 50.195312 100.457031 55.339844 89.285156 55.457031 C 89.199219 55.457031 89.117188 55.472656 89.035156 55.472656 C 101.003906 82.796875 104.035156 112.652344 106.402344 135.410156 C 112.875 217.113281 103.152344 297.4375 94.328125 325.824219 L 94.746094 325.957031 C 150.324219 336.414062 226.082031 336.148438 280.261719 325.957031 L 280.679688 325.824219 C 271.851562 297.4375 262.128906 217.113281 268.609375 135.410156 C 270.972656 112.652344 274.015625 82.796875 285.972656 55.472656 C 285.890625 55.472656 285.808594 55.457031 285.722656 55.457031 " fill-opacity="1" fill-rule="nonzero"/><path fill="#dedddb" d="M 231.394531 45.5 C 231.742188 44.917969 232.058594 44.386719 232.308594 43.902344 L 232.324219 43.902344 C 232.34375 43.871094 232.359375 43.835938 232.375 43.800781 C 232.34375 43.820312 232.292969 43.851562 232.257812 43.871094 C 207.699219 61.234375 170.421875 61.703125 145.160156 45.5 C 144.347656 44.96875 143.53125 44.433594 142.746094 43.871094 C 142.714844 43.851562 142.664062 43.820312 142.628906 43.800781 C 142.914062 44.320312 143.246094 44.882812 143.613281 45.5 C 167.089844 85.226562 209.015625 83.398438 231.394531 45.5 " fill-opacity="1" fill-rule="nonzero"/><g clip-path="url(#7720f340ea)"><path fill="#bcbdc0" d="M 288.019531 162.738281 C 287.820312 163.003906 278.261719 150.714844 272.75 143.089844 C 272.871094 140.609375 272.984375 138.144531 273.117188 135.710938 C 274.867188 112.785156 276.949219 83.332031 286.703125 55.660156 C 288.785156 56.40625 291.402344 59.605469 297.84375 67.3125 C 314.375 87.0625 329.011719 110.121094 337.820312 130.601562 C 337.820312 130.601562 320.804688 150.847656 288.019531 162.738281 Z M 268.605469 135.414062 C 262.128906 217.117188 271.851562 297.4375 280.675781 325.824219 L 280.261719 325.957031 C 226.082031 336.148438 150.320312 336.414062 94.746094 325.957031 L 94.328125 325.824219 C 103.152344 297.4375 112.875 217.117188 106.398438 135.414062 C 104.035156 112.652344 101.003906 82.796875 89.035156 55.476562 C 89.117188 55.476562 89.199219 55.460938 89.28125 55.460938 C 100.453125 55.34375 130.507812 50.195312 141.679688 43.902344 C 141.863281 44.570312 142.082031 45.269531 142.347656 46.085938 C 160.546875 89.460938 214.460938 89.441406 232.660156 46.085938 C 232.855469 45.46875 233.027344 44.917969 233.175781 44.402344 C 233.222656 44.234375 233.273438 44.070312 233.324219 43.902344 C 244.496094 50.195312 274.550781 55.34375 285.722656 55.460938 C 285.804688 55.460938 285.886719 55.476562 285.972656 55.476562 C 274.015625 82.796875 270.972656 112.652344 268.605469 135.414062 Z M 86.984375 162.738281 C 54.203125 150.847656 37.183594 130.601562 37.183594 130.601562 C 45.992188 110.121094 60.628906 87.0625 77.160156 67.3125 C 83.605469 59.605469 86.21875 56.40625 88.300781 55.660156 C 98.058594 83.332031 100.136719 112.785156 101.886719 135.710938 C 102.019531 138.144531 102.136719 140.609375 102.253906 143.089844 C 96.742188 150.714844 87.1875 163.003906 86.984375 162.738281 Z M 142.746094 43.871094 C 143.53125 44.4375 144.34375 44.96875 145.160156 45.5 C 170.417969 61.703125 207.699219 61.238281 232.257812 43.871094 C 232.289062 43.855469 232.339844 43.820312 232.375 43.804688 C 232.355469 43.835938 232.339844 43.871094 232.328125 43.902344 L 232.308594 43.902344 C 232.058594 44.386719 231.742188 44.917969 231.394531 45.5 C 209.015625 83.398438 167.089844 85.230469 143.613281 45.5 C 143.246094 44.886719 142.914062 44.320312 142.628906 43.804688 C 142.664062 43.820312 142.714844 43.855469 142.746094 43.871094 Z M 286.6875 53.84375 C 269.9375 50.746094 243.3125 45.019531 233.589844 42.722656 C 233.410156 42.679688 233.222656 42.65625 233.058594 42.570312 C 233.039062 42.570312 233.027344 42.585938 233.007812 42.585938 L 232.992188 42.585938 C 232.972656 42.585938 232.972656 42.605469 232.972656 42.605469 C 232.335938 42.960938 231.839844 43.171875 231.839844 43.171875 C 204.101562 56.574219 173.816406 57.074219 145.695312 44.355469 C 144.84375 43.96875 144.011719 43.570312 143.164062 43.171875 C 143.164062 43.171875 142.820312 43.042969 142.03125 42.605469 C 142.03125 42.605469 142.03125 42.585938 142.015625 42.585938 L 141.996094 42.585938 C 141.980469 42.585938 141.964844 42.570312 141.949219 42.570312 C 141.773438 42.660156 141.605469 42.679688 141.414062 42.722656 C 131.691406 45.019531 105.066406 50.746094 88.316406 53.84375 C 83.023438 55.394531 79.59375 61.085938 75.3125 65.679688 C 47.375 95.417969 31.605469 131.632812 31.605469 131.632812 C 41.746094 145.351562 67.636719 160.488281 87.601562 165.984375 C 87.636719 166 87.683594 166.035156 87.71875 166.050781 C 88.582031 164.882812 97.359375 154.046875 102.417969 147.070312 C 105 211.453125 100.820312 292.609375 93.59375 325.675781 C 93.480469 326.207031 93.363281 326.738281 93.246094 327.257812 C 93.378906 327.308594 93.710938 327.355469 93.847656 327.40625 C 94.011719 327.457031 94.160156 327.492188 94.246094 327.507812 C 94.328125 327.523438 94.394531 327.539062 94.476562 327.558594 C 143.578125 339.726562 231.425781 339.726562 280.527344 327.558594 C 280.613281 327.539062 280.675781 327.523438 280.761719 327.507812 C 280.84375 327.492188 280.992188 327.457031 281.160156 327.40625 C 281.292969 327.355469 281.625 327.308594 281.761719 327.257812 C 281.644531 326.738281 281.523438 326.207031 281.410156 325.675781 C 274.183594 292.609375 270.003906 211.453125 272.585938 147.070312 C 277.644531 154.046875 286.421875 164.882812 287.289062 166.050781 C 287.320312 166.035156 287.371094 166 287.402344 165.984375 C 307.367188 160.488281 333.257812 145.351562 343.398438 131.632812 C 343.398438 131.632812 327.632812 95.417969 299.691406 65.679688 C 295.414062 61.085938 291.984375 55.394531 286.6875 53.84375 " fill-opacity="1" fill-rule="nonzero"/></g></svg>